<svg xmlns="http://www.w3.org/2000/svg" xmlns:xlink="http://www.w3.org/1999/xlink" viewBox="0 0 120 120"><defs><style>.cls-1{isolation:isolate;}.cls-2{fill:#01366a;}.cls-3{stroke-miterlimit:10;stroke-width:0.25px;fill:url(#未命名漸層_187);stroke:url(#Unbenannter_Verlauf_117);}.cls-4{fill:#0065b1;}.cls-5{mix-blend-mode:overlay;fill:url(#未命名漸層_6);}.cls-6{fill:#fff;}</style><linearGradient id="未命名漸層_187" x1="60" y1="115.71" x2="60" y2="4.29" gradientUnits="userSpaceOnUse"><stop offset="0" stop-color="#0060aa"/><stop offset="0.3" stop-color="#0178b7"/><stop offset="0.92" stop-color="#02b5da"/><stop offset="0.99" stop-color="#02bcde"/></linearGradient><linearGradient id="Unbenannter_Verlauf_117" x1="4.16" y1="60" x2="115.84" y2="60" gradientUnits="userSpaceOnUse"><stop offset="0.01" stop-color="#02bcde"/><stop offset="0.08" stop-color="#029dc3"/><stop offset="0.17" stop-color="#0178a3"/><stop offset="0.26" stop-color="#015b8a"/><stop offset="0.36" stop-color="#014778"/><stop offset="0.45" stop-color="#013a6e"/><stop offset="0.54" stop-color="#01366a"/><stop offset="0.55" stop-color="#014a7c"/><stop offset="0.58" stop-color="#0178a3"/><stop offset="0.61" stop-color="#029ec4"/><stop offset="0.64" stop-color="#02bcde"/><stop offset="0.67" stop-color="#02d1f0"/><stop offset="0.69" stop-color="#02defb"/><stop offset="0.72" stop-color="#02e2ff"/><stop offset="0.81" stop-color="#01b5e1"/><stop offset="0.94" stop-color="#0078ba"/><stop offset="1" stop-color="#0060aa"/></linearGradient><radialGradient id="未命名漸層_6" cx="61.89" cy="-22.14" r="66.58" gradientUnits="userSpaceOnUse"><stop offset="0" stop-color="#fff"/><stop offset="1" stop-color="#fff" stop-opacity="0"/></radialGradient></defs><title>btn_paper_light</title><g class="cls-1"><g id="圖層_2" data-name="圖層 2"><g id="圖層_1-2" data-name="圖層 1"><path class="cls-2" d="M60,0a60,60,0,1,0,60,60A60,60,0,0,0,60,0Zm0,115.71A55.71,55.71,0,1,1,115.71,60,55.71,55.71,0,0,1,60,115.71Z"/><circle class="cls-3" cx="60" cy="60" r="55.71"/><path class="cls-4" d="M60,94.29a55.72,55.72,0,0,1-54.67-45,55.71,55.71,0,1,0,109.34,0A55.72,55.72,0,0,1,60,94.29Z"/><ellipse class="cls-5" cx="60" cy="28.9" rx="32.45" ry="18.61"/><path d="M76.62,44.64Q79,40,81.35,35.3c.32-.62.55-1.29.86-1.93a9.15,9.15,0,0,1,7.1-5.46,5.06,5.06,0,0,1,5.74,6c-.46,2.51-1.11,5-1.74,7.48-1.43,5.6-3,11.17-4,16.87A46.84,46.84,0,0,0,88.72,68,36.55,36.55,0,0,1,84,87.38a29.86,29.86,0,0,1-7.12,8.31c-.2.17-.31.3-.19.6A5.17,5.17,0,0,1,75,102.6a13.59,13.59,0,0,1-7.65,3.17,34.08,34.08,0,0,1-14.64-1.45,10.31,10.31,0,0,1-5.93-4.86,5.53,5.53,0,0,1-.2-5.21c0-.1.07-.2.11-.29-.83-.77-1.68-1.5-2.46-2.29-1.84-1.84-3.62-3.73-5.47-5.56a34,34,0,0,0-2.78-2.45,2.9,2.9,0,0,0-1.24-.46,51,51,0,0,1-9.42-2.47A13.35,13.35,0,0,1,20.66,78a4.34,4.34,0,0,1-1-5.19,16.13,16.13,0,0,1,5.2-6.69,10.86,10.86,0,0,1,9.77-1.35,25.84,25.84,0,0,1,7.67,3.94l1.18.84s.07,0,.18,0c0-1-.05-2-.1-3a106,106,0,0,0-2.91-18.82c-.9-3.84-1.85-7.66-2.74-11.5a12.68,12.68,0,0,1,1-9.28,9.75,9.75,0,0,1,7.39-5.46A6,6,0,0,1,53,26c.43,1.41.62,2.9,1.05,4.31,1.16,3.9,2.39,7.77,3.6,11.65a2,2,0,0,0,.15.29c.06-.58.11-1,.17-1.48.67-4.56,1.31-9.13,2-13.68a12,12,0,0,1,10.45-9.95,7.15,7.15,0,0,1,4.16.74,6.1,6.1,0,0,1,3.14,4.66,14.15,14.15,0,0,1-.12,4.11,153.87,153.87,0,0,0-1.24,17.56c0,.13,0,.27,0,.4Zm-14.14,15c-.09,0-.13-.06-.14-.08A33.57,33.57,0,0,1,58.48,52c-1.37-4.06-2.66-8.15-4-12.23A107.28,107.28,0,0,1,51,27.34a6,6,0,0,0-.56-1.54,3.51,3.51,0,0,0-3.61-2,5.81,5.81,0,0,0-2.88,1,9.3,9.3,0,0,0-4.09,7.72,18.7,18.7,0,0,0,.76,5c1.27,5.58,2.64,11.13,3.79,16.73A76.34,76.34,0,0,1,46,71.8a1.29,1.29,0,0,1-.7,1.33,1.32,1.32,0,0,1-1.46-.33c-1.09-.85-2.17-1.7-3.3-2.48A22.61,22.61,0,0,0,34,67c-3.22-.94-6.17-.57-8.72,1.76a15.68,15.68,0,0,0-3.46,4.91,2,2,0,0,0,.38,2.47,10.31,10.31,0,0,0,4,2.39,46,46,0,0,0,8.93,2.32,4.69,4.69,0,0,1,2.27.91c1.15,1,2.29,2,3.38,3,2.42,2.35,4.74,4.8,7.21,7.1a15.78,15.78,0,0,0,7.06,4,36.7,36.7,0,0,0,15.12.39,9.4,9.4,0,0,0,4-1.49,27.82,27.82,0,0,0,8.28-9.5,34.29,34.29,0,0,0,4-17.42,47.74,47.74,0,0,1,.75-10.68c1.12-6,2.75-11.83,4.25-17.71.52-2.07,1-4.15,1.4-6.24a1.84,1.84,0,0,0-.07-.9,2.78,2.78,0,0,0-3.88-2A7,7,0,0,0,85,33.29a26.27,26.27,0,0,0-1.38,2.82,95.34,95.34,0,0,1-6,11.23,5.68,5.68,0,0,0-1,3.76c.16,1.82.23,3.64.33,5.46.07,1.29.13,2.57.2,3.88-.08,0-.13,0-.14-.06l-.25-.51a34.42,34.42,0,0,1-2.67-13.13A152.9,152.9,0,0,1,75.4,25.68a13.71,13.71,0,0,0,.11-2.22,3.89,3.89,0,0,0-4.26-4,7.3,7.3,0,0,0-1.48.17,9.7,9.7,0,0,0-7.38,7.72c-.2,1.15-.33,2.31-.49,3.47q-1,7.49-2.08,15a10.41,10.41,0,0,0,0,3.65c.32,1.45.61,2.9,1,4.33C61.34,55.72,61.91,57.67,62.48,59.69ZM48.54,95.58a3.52,3.52,0,0,0,.73,3.49,9.06,9.06,0,0,0,4.59,3.18,32.23,32.23,0,0,0,9.46,1.37,20.27,20.27,0,0,0,6.44-.75,9.07,9.07,0,0,0,4.49-3,2.32,2.32,0,0,0,.33-2.45c-1.16.36-2.23.78-3.35,1a36.69,36.69,0,0,1-11.45.59,22.56,22.56,0,0,1-6.71-1.3C51.53,97.16,50.08,96.33,48.54,95.58Z"/><path class="cls-6" d="M62.48,59.69c-.57-2-1.14-4-1.65-5.94-.37-1.43-.66-2.88-1-4.33a10.41,10.41,0,0,1,0-3.65q1-7.49,2.08-15c.16-1.16.29-2.32.49-3.47a9.7,9.7,0,0,1,7.38-7.72,7.3,7.3,0,0,1,1.48-.17,3.89,3.89,0,0,1,4.26,4,13.71,13.71,0,0,1-.11,2.22,152.9,152.9,0,0,0-1.32,21.06,34.42,34.42,0,0,0,2.67,13.13l.25.51s.06,0,.14.06c-.07-1.31-.13-2.59-.2-3.88-.1-1.82-.17-3.64-.33-5.46a5.68,5.68,0,0,1,1-3.76,95.34,95.34,0,0,0,6-11.23A26.27,26.27,0,0,1,85,33.29a7,7,0,0,1,3.85-2.89,2.78,2.78,0,0,1,3.88,2,1.84,1.84,0,0,1,.07.9c-.45,2.09-.88,4.17-1.4,6.24-1.5,5.88-3.13,11.73-4.25,17.71a47.74,47.74,0,0,0-.75,10.68,34.29,34.29,0,0,1-4,17.42,27.82,27.82,0,0,1-8.28,9.5,9.4,9.4,0,0,1-4,1.49A36.7,36.7,0,0,1,55,95.93a15.78,15.78,0,0,1-7.06-4c-2.47-2.3-4.79-4.75-7.21-7.1-1.09-1-2.23-2-3.38-3a4.69,4.69,0,0,0-2.27-.91,46,46,0,0,1-8.93-2.32,10.31,10.31,0,0,1-4-2.39,2,2,0,0,1-.38-2.47,15.68,15.68,0,0,1,3.46-4.91c2.55-2.33,5.5-2.7,8.72-1.76a22.61,22.61,0,0,1,6.51,3.31c1.13.78,2.21,1.63,3.3,2.48a1.32,1.32,0,0,0,1.46.33A1.29,1.29,0,0,0,46,71.8a76.34,76.34,0,0,0-1.56-17.46c-1.15-5.6-2.52-11.15-3.79-16.73a18.7,18.7,0,0,1-.76-5,9.3,9.3,0,0,1,4.09-7.72,5.81,5.81,0,0,1,2.88-1,3.51,3.51,0,0,1,3.61,2A6,6,0,0,1,51,27.34a107.28,107.28,0,0,0,3.51,12.47c1.33,4.08,2.62,8.17,4,12.23a33.57,33.57,0,0,0,3.86,7.57S62.39,59.64,62.48,59.69Z"/><path class="cls-6" d="M48.54,95.58c1.54.75,3,1.58,4.53,2.2a22.56,22.56,0,0,0,6.71,1.3,36.69,36.69,0,0,0,11.45-.59c1.12-.26,2.19-.68,3.35-1a2.32,2.32,0,0,1-.33,2.45,9.07,9.07,0,0,1-4.49,3,20.27,20.27,0,0,1-6.44.75,32.23,32.23,0,0,1-9.46-1.37,9.06,9.06,0,0,1-4.59-3.18A3.52,3.52,0,0,1,48.54,95.58Z"/></g></g></g></svg>