<svg xmlns="http://www.w3.org/2000/svg" xmlns:xlink="http://www.w3.org/1999/xlink" viewBox="0 0 120 120"><defs><style>.cls-1{isolation:isolate;}.cls-2{fill:#4d4d4d;}.cls-3{fill:url(#未命名漸層_28);}.cls-4{fill:#464646;}.cls-5{mix-blend-mode:overlay;fill:url(#未命名漸層_6);}.cls-6{opacity:0.4;}.cls-7{fill:#fff;opacity:0.2;}</style><linearGradient id="未命名漸層_28" x1="60" y1="115.71" x2="60" y2="4.29" gradientUnits="userSpaceOnUse"><stop offset="0" stop-color="#999"/><stop offset="0.01" stop-color="#949494"/><stop offset="0.08" stop-color="#7a7a7a"/><stop offset="0.15" stop-color="#666"/><stop offset="0.23" stop-color="#585858"/><stop offset="0.33" stop-color="#505050"/><stop offset="0.5" stop-color="#4d4d4d"/><stop offset="0.67" stop-color="#505050"/><stop offset="0.77" stop-color="#585858"/><stop offset="0.85" stop-color="#666"/><stop offset="0.92" stop-color="#7a7a7a"/><stop offset="0.99" stop-color="#949494"/><stop offset="1" stop-color="#999"/></linearGradient><radialGradient id="未命名漸層_6" cx="61.89" cy="-22.14" r="66.58" gradientUnits="userSpaceOnUse"><stop offset="0" stop-color="#fff"/><stop offset="1" stop-color="#fff" stop-opacity="0"/></radialGradient></defs><title>btn_stone_gray</title><g class="cls-1"><g id="圖層_2" data-name="圖層 2"><g id="圖層_1-2" data-name="圖層 1"><path class="cls-2" d="M60,0a60,60,0,1,0,60,60A60,60,0,0,0,60,0Zm0,115.71A55.71,55.71,0,1,1,115.71,60,55.71,55.71,0,0,1,60,115.71Z"/><circle class="cls-3" cx="60" cy="60" r="55.71"/><path class="cls-4" d="M60,94.29a55.72,55.72,0,0,1-54.67-45,55.71,55.71,0,1,0,109.34,0A55.72,55.72,0,0,1,60,94.29Z"/><ellipse class="cls-5" cx="60" cy="28.9" rx="32.45" ry="18.61"/><g class="cls-6"><path class="cls-7" d="M57.82,103.71c-.66-.09-1.33-.16-2-.28a16.79,16.79,0,0,1-7-2.93,6.68,6.68,0,0,1-2.61-7.75l-.93-.56A42.4,42.4,0,0,1,27.94,72.91a53.5,53.5,0,0,1-4.88-18A60.67,60.67,0,0,1,23,43a24.16,24.16,0,0,1,3.37-10.88,11.35,11.35,0,0,1,8.47-5.38c.33,0,.51-.11.61-.5,1.35-5.32,5-8.31,10.14-9.48a14,14,0,0,1,11,1.62,30.34,30.34,0,0,1,3.29,2.8c.42-.38,1-.92,1.55-1.41,7.63-6.35,18.18-2,19.93,7.52a14.36,14.36,0,0,1,0,5.27.63.63,0,0,0,.51.85,26,26,0,0,1,7.53,3.55,18.8,18.8,0,0,1,7.54,12.42c.94,5.1.22,10.09-1.15,15a48.23,48.23,0,0,1-9.9,18.83,2.5,2.5,0,0,0-.16.24c2.12,3.3,1.72,6.55-.31,9.68a19.43,19.43,0,0,1-2.7,3.17c-2.33,2.26-5.28,3.44-8.26,4.5a49,49,0,0,1-13.17,2.82c-.2,0-.4.08-.61.11ZM35.19,29.87a7.92,7.92,0,0,0-5.31,2.77,15,15,0,0,0-3.16,6.89c-1.26,5.79-.95,11.6-.22,17.41A48.86,48.86,0,0,0,31,72,40.39,40.39,0,0,0,45.24,88.48a18,18,0,0,0,11.35,3.25,64.35,64.35,0,0,0,14.5-2.6A25.8,25.8,0,0,0,84,80.43a45.55,45.55,0,0,0,8.15-15.2A33.5,33.5,0,0,0,94,51.51C93.26,44.86,90,40,83.7,37.44c-.89-.36-1.81-.68-2.76-1a4.26,4.26,0,0,0-.06.44,31,31,0,0,0,1.33,8.86,35.2,35.2,0,0,0,4.49,8.62c.44.66.86,1.34,1.14,1.77-.87-.8-2-1.7-3-2.76a40.54,40.54,0,0,1-4.12-5c-2-3-2.56-6.4-2.85-9.88A20.94,20.94,0,0,1,78.15,32a10.23,10.23,0,0,0-.1-4.57,9.07,9.07,0,0,0-10-7.39c-2.71.31-6.84,2.7-7.5,6.63-.63,3.71-1.2,7.43-1.79,11.14-.1.62-.15,1.25-.22,1.87s-.15,1.18-.23,1.89a35.28,35.28,0,0,1-1-13.94,13,13,0,0,0,.13-3A4.76,4.76,0,0,0,55,21.11a11.75,11.75,0,0,0-10.91-.58A8.89,8.89,0,0,0,38.25,29c-.22,5.13-.55,10.26-.83,15.38a3,3,0,0,1-.06.32C35.46,40,35.23,35,35.19,29.87ZM49.1,94.13a10,10,0,0,0,0,1.45,4.11,4.11,0,0,0,2.28,2.83,14.15,14.15,0,0,0,7.13,2.08,41,41,0,0,0,11.81-1.76,30.92,30.92,0,0,0,8.53-3.52,10.82,10.82,0,0,0,4.82-6,4.19,4.19,0,0,0-.36-3.41l-.66.58A23,23,0,0,1,75.25,91a70.79,70.79,0,0,1-7.51,2.32C61.64,94.73,55.48,95.67,49.1,94.13Z"/></g></g></g></g></svg>