<svg xmlns="http://www.w3.org/2000/svg" xmlns:xlink="http://www.w3.org/1999/xlink" viewBox="0 0 40 40"><defs><style>.cls-1{isolation:isolate;}.cls-2{fill:#823100;}.cls-3{fill:url(#未命名漸層_24);}.cls-4,.cls-5{mix-blend-mode:overlay;}.cls-4{fill:url(#Unbenannter_Verlauf_76);}.cls-5{fill:url(#未命名漸層_6);}.cls-6{fill:#fff;}</style><linearGradient id="未命名漸層_24" x1="20" y1="38.57" x2="20" y2="1.43" gradientUnits="userSpaceOnUse"><stop offset="0" stop-color="#ff97b1"/><stop offset="0.16" stop-color="#f2667f"/><stop offset="0.52" stop-color="#d70016"/><stop offset="0.55" stop-color="#da0920"/><stop offset="1" stop-color="#ff97b1"/></linearGradient><radialGradient id="Unbenannter_Verlauf_76" cx="-77.85" cy="-355.51" r="20.94" gradientTransform="translate(87.03 302.24) scale(0.86 0.85)" gradientUnits="userSpaceOnUse"><stop offset="0" stop-color="#fff"/><stop offset="1" stop-color="#fff" stop-opacity="0"/></radialGradient><radialGradient id="未命名漸層_6" cx="20.63" cy="-7.38" r="22.19" gradientUnits="userSpaceOnUse"><stop offset="0" stop-color="#fff"/><stop offset="1" stop-color="#fff" stop-opacity="0"/></radialGradient></defs><title>btn_leave</title><g class="cls-1"><g id="圖層_2" data-name="圖層 2"><g id="圖層_1-2" data-name="圖層 1"><path class="cls-2" d="M20,0A20,20,0,1,0,40,20,20,20,0,0,0,20,0Zm0,38.57A18.57,18.57,0,1,1,38.57,20,18.56,18.56,0,0,1,20,38.57Z"/><circle class="cls-3" cx="20" cy="20" r="18.57"/><path class="cls-4" d="M33.13,14.1c0,6-5.47-1.67-12.73-1.67S6.87,20.05,6.87,14.1,12.75,3.31,20,3.31,33.13,8.14,33.13,14.1Z"/><ellipse class="cls-5" cx="20" cy="9.63" rx="10.82" ry="6.2"/><path class="cls-6" d="M23.2,20.12v-.24l4.49-4.5a2.47,2.47,0,0,0,0-3.07h0a2.47,2.47,0,0,0-3.07,0l-4.5,4.49h-.24l-4.5-4.49a2.47,2.47,0,0,0-3.07,0h0a2.47,2.47,0,0,0,0,3.07l4.49,4.5v.24l-4.49,4.5a2.47,2.47,0,0,0,0,3.07h0a2.47,2.47,0,0,0,3.07,0l4.5-4.49h.24l4.5,4.49a2.47,2.47,0,0,0,3.07,0h0a2.47,2.47,0,0,0,0-3.07Z"/></g></g></g></svg>