<svg xmlns="http://www.w3.org/2000/svg" xmlns:xlink="http://www.w3.org/1999/xlink" viewBox="0 0 66 66"><defs><style>.cls-1{isolation:isolate;}.cls-2{fill:#823100;}.cls-3{fill:url(#未命名漸層_24);}.cls-4,.cls-5{mix-blend-mode:overlay;}.cls-4{fill:url(#Unbenannter_Verlauf_76);}.cls-5{fill:url(#未命名漸層_6);}.cls-6{fill:#fff;}</style><linearGradient id="未命名漸層_24" x1="33" y1="63.64" x2="33" y2="2.36" gradientUnits="userSpaceOnUse"><stop offset="0" stop-color="#ff97b1"/><stop offset="0.16" stop-color="#f2667f"/><stop offset="0.52" stop-color="#d70016"/><stop offset="0.55" stop-color="#da0920"/><stop offset="1" stop-color="#ff97b1"/></linearGradient><radialGradient id="Unbenannter_Verlauf_76" cx="-93.15" cy="-357.2" r="34.55" gradientTransform="translate(113.11 304.22) scale(0.86 0.85)" gradientUnits="userSpaceOnUse"><stop offset="0" stop-color="#fff"/><stop offset="1" stop-color="#fff" stop-opacity="0"/></radialGradient><radialGradient id="未命名漸層_6" cx="34.04" cy="-12.18" r="36.62" gradientUnits="userSpaceOnUse"><stop offset="0" stop-color="#fff"/><stop offset="1" stop-color="#fff" stop-opacity="0"/></radialGradient></defs><title>btn_clear_red</title><g class="cls-1"><g id="圖層_2" data-name="圖層 2"><g id="圖層_1-2" data-name="圖層 1"><path class="cls-2" d="M33,0A33,33,0,1,0,66,33,33,33,0,0,0,33,0Zm0,63.64A30.64,30.64,0,1,1,63.64,33,30.64,30.64,0,0,1,33,63.64Z"/><circle class="cls-3" cx="33" cy="33" r="30.64"/><path class="cls-4" d="M54.67,23.26c0,9.83-9-2.75-21-2.75S11.33,33.09,11.33,23.26,21,5.46,33,5.46,54.67,13.43,54.67,23.26Z"/><ellipse class="cls-5" cx="33" cy="15.89" rx="17.85" ry="10.23"/><path class="cls-6" d="M32.56,17.65V15.07c0-.64-.64-.86-1.28-.64l-8.16,6.22a1.42,1.42,0,0,0,0,2.15L31.28,29c.43.43,1.28,0,1.28-.65V26a1.38,1.38,0,0,1,1.72-1.29,10.91,10.91,0,0,1,9,13.1A10.6,10.6,0,0,1,35.14,46,10.92,10.92,0,0,1,21.83,35.47a10,10,0,0,1,1.93-6,2.69,2.69,0,0,0-.64-3.65h0a2.5,2.5,0,0,0-3.65.64A15.45,15.45,0,0,0,17.11,38.9,16.07,16.07,0,0,0,29.77,51.35,16.31,16.31,0,0,0,49.31,35.47,16,16,0,0,0,34.5,19.37C33.21,18.94,32.56,18.29,32.56,17.65Z"/></g></g></g></svg>