<svg xmlns="http://www.w3.org/2000/svg" xmlns:xlink="http://www.w3.org/1999/xlink" viewBox="0 0 120 120"><defs><style>.cls-1{isolation:isolate;}.cls-2{fill:#01366a;}.cls-3{stroke-miterlimit:10;stroke-width:0.25px;fill:url(#未命名漸層_187);stroke:url(#Unbenannter_Verlauf_117);}.cls-4{fill:#0065b1;}.cls-5{mix-blend-mode:overlay;fill:url(#未命名漸層_6);}.cls-6{opacity:0.4;}.cls-7{fill:#1b1464;}</style><linearGradient id="未命名漸層_187" x1="60" y1="115.71" x2="60" y2="4.29" gradientUnits="userSpaceOnUse"><stop offset="0" stop-color="#0060aa"/><stop offset="0.3" stop-color="#0178b7"/><stop offset="0.92" stop-color="#02b5da"/><stop offset="0.99" stop-color="#02bcde"/></linearGradient><linearGradient id="Unbenannter_Verlauf_117" x1="4.16" y1="60" x2="115.84" y2="60" gradientUnits="userSpaceOnUse"><stop offset="0.01" stop-color="#02bcde"/><stop offset="0.08" stop-color="#029dc3"/><stop offset="0.17" stop-color="#0178a3"/><stop offset="0.26" stop-color="#015b8a"/><stop offset="0.36" stop-color="#014778"/><stop offset="0.45" stop-color="#013a6e"/><stop offset="0.54" stop-color="#01366a"/><stop offset="0.55" stop-color="#014a7c"/><stop offset="0.58" stop-color="#0178a3"/><stop offset="0.61" stop-color="#029ec4"/><stop offset="0.64" stop-color="#02bcde"/><stop offset="0.67" stop-color="#02d1f0"/><stop offset="0.69" stop-color="#02defb"/><stop offset="0.72" stop-color="#02e2ff"/><stop offset="0.81" stop-color="#01b5e1"/><stop offset="0.94" stop-color="#0078ba"/><stop offset="1" stop-color="#0060aa"/></linearGradient><radialGradient id="未命名漸層_6" cx="61.89" cy="-22.14" r="66.58" gradientUnits="userSpaceOnUse"><stop offset="0" stop-color="#fff"/><stop offset="1" stop-color="#fff" stop-opacity="0"/></radialGradient></defs><title>btn_scissor_dark</title><g class="cls-1"><g id="圖層_2" data-name="圖層 2"><g id="圖層_1-2" data-name="圖層 1"><path class="cls-2" d="M60,0a60,60,0,1,0,60,60A60,60,0,0,0,60,0Zm0,115.71A55.71,55.71,0,1,1,115.71,60,55.71,55.71,0,0,1,60,115.71Z"/><circle class="cls-3" cx="60" cy="60" r="55.71"/><path class="cls-4" d="M114.67,49.29a55.71,55.71,0,0,1-109.34,0,55.71,55.71,0,1,0,109.34,0Z"/><ellipse class="cls-5" cx="60" cy="28.9" rx="32.45" ry="18.61"/><g class="cls-6"><path class="cls-7" d="M33.36,75.4c-.24-1.1-.52-2.19-.72-3.3a16.36,16.36,0,0,1,2-12,14.71,14.71,0,0,1,6-5.19c.59-.31,1.19-.6,1.79-.86a.43.43,0,0,0,.3-.56c-.64-2.94-1.23-5.89-1.92-8.81a102.54,102.54,0,0,1-2.66-13.18,12,12,0,0,1,4.15-10.8,9,9,0,0,1,5.16-2.28,6.11,6.11,0,0,1,6.74,4.88c.41,1.87.63,3.77,1,5.64.65,2.9,1.4,5.78,2.12,8.66.19.76.41,1.51.66,2.42.08-.31.12-.48.16-.66,1-4.88,1.95-9.78,3-14.65a11.64,11.64,0,0,1,6.37-8,10.76,10.76,0,0,1,5-1.27c4.13,0,6.85,2.68,6.76,6.81a29.72,29.72,0,0,1-.59,4.38,156.13,156.13,0,0,0-2.22,18.67,1.07,1.07,0,0,0,.44,1,31.24,31.24,0,0,1,7.64,8.67,22.43,22.43,0,0,1,3.09,11.55,38.91,38.91,0,0,1-4.17,17.39,30.25,30.25,0,0,1-9.41,11,.62.62,0,0,0-.29.84,4.94,4.94,0,0,1-1.63,5.67,12.83,12.83,0,0,1-7.64,3.11,34.8,34.8,0,0,1-15.16-2.16,10.7,10.7,0,0,1-5.86-5.15,5.65,5.65,0,0,1-.07-5.37,2.07,2.07,0,0,0,.08-.2,34,34,0,0,1-4.91-5.6,38.54,38.54,0,0,1-3.92-7,2.85,2.85,0,0,0-.25-.45Zm43.07-16h-.14c-.07-.18-.15-.35-.22-.52a33.56,33.56,0,0,1-1.66-7,44.74,44.74,0,0,1-.09-9.47,168.76,168.76,0,0,1,2.45-18.33A11.26,11.26,0,0,0,77,21.56a3.74,3.74,0,0,0-3.56-3.75,6.22,6.22,0,0,0-1.14,0,9.81,9.81,0,0,0-8.84,7.9c-.26,1.38-.56,2.75-.83,4.14-.94,4.73-1.89,9.47-2.8,14.22a7,7,0,0,0-.19,2.27c.4,2.73.88,5.45,1.35,8.17.1.59.25,1.16.38,1.74l.36,1.66a35,35,0,0,1-4.1-9.79c-.93-3.64-1.88-7.27-2.8-10.91-.64-2.52-1.27-5-1.83-7.56-.4-1.8-.65-3.62-1-5.44a3.82,3.82,0,0,0-4.91-3.3A7.43,7.43,0,0,0,44.49,22a9.42,9.42,0,0,0-4,8.93,64.68,64.68,0,0,0,1.83,9.83c.9,4,1.85,8,2.69,12a27.47,27.47,0,0,1,.44,7.73,14.08,14.08,0,0,1-3.15,7.87c-.9,1.11-1.78,2.24-2.66,3.37l-.14,0C42.23,66.92,44,62,43.07,56.3l-1.63.82a11.71,11.71,0,0,0-6.32,7.68,16.9,16.9,0,0,0,.23,8.62,34.19,34.19,0,0,0,8.52,15.21,18.57,18.57,0,0,0,7.82,5.21A37.91,37.91,0,0,0,67,95.25a10,10,0,0,0,4.54-1.4,28.28,28.28,0,0,0,8.38-8.39,35.66,35.66,0,0,0,5.39-17.19,21.43,21.43,0,0,0-.83-7.88,24.83,24.83,0,0,0-7.1-10.69l-.87-.77C76.46,52.52,76.44,56,76.43,59.45Zm-31,33.83a3.44,3.44,0,0,0,.32,3.06A8.45,8.45,0,0,0,50,100a31.84,31.84,0,0,0,12,2.22A13.11,13.11,0,0,0,68.62,101a7.23,7.23,0,0,0,2.75-2.18,2.34,2.34,0,0,0,.28-2.12c-1.52.32-2.93.73-4.36.92a39.9,39.9,0,0,1-12.24-.49,20.88,20.88,0,0,1-6.55-2C47.48,94.53,46.5,93.9,45.45,93.28Z"/></g></g></g></g></svg>