<svg xmlns="http://www.w3.org/2000/svg" viewBox="0 0 40 40"><defs><style>.cls-1{fill:#fff;}</style></defs><title>btn_close</title><g id="圖層_2" data-name="圖層 2"><g id="圖層_1-2" data-name="圖層 1"><path class="cls-1" d="M20,0A19.89,19.89,0,0,0,0,20,19.89,19.89,0,0,0,20,40,20,20,0,0,0,20,0Zm0,35.88A15.88,15.88,0,1,1,35.88,20,15.89,15.89,0,0,1,20,35.88Z"/><path class="cls-1" d="M22.89,20.41v-.2l3.91-3.92a2.16,2.16,0,0,0,0-2.68h0a2.16,2.16,0,0,0-2.68,0l-3.91,3.92H20l-3.92-3.92a2.16,2.16,0,0,0-2.68,0h0a2.16,2.16,0,0,0,0,2.68l3.92,3.92v.2L13.4,24.33a2.16,2.16,0,0,0,0,2.68h0a2.16,2.16,0,0,0,2.68,0L20,23.09h.21L24.12,27a2.16,2.16,0,0,0,2.68,0h0a2.16,2.16,0,0,0,0-2.68Z"/></g></g></svg>