<svg xmlns="http://www.w3.org/2000/svg" xmlns:xlink="http://www.w3.org/1999/xlink" viewBox="0 0 66 66"><defs><style>.cls-1{isolation:isolate;}.cls-2{fill:#ac4000;}.cls-3{fill:url(#未命名漸層_148);}.cls-4,.cls-5{mix-blend-mode:overlay;}.cls-4{fill:url(#Unbenannter_Verlauf_76);}.cls-5{fill:url(#未命名漸層_6);}.cls-6{fill:#fff;}</style><linearGradient id="未命名漸層_148" x1="33" y1="63.64" x2="33" y2="2.36" gradientUnits="userSpaceOnUse"><stop offset="0" stop-color="#ffd06c"/><stop offset="0.5" stop-color="#f94216"/><stop offset="0.52" stop-color="#f9491a"/><stop offset="0.63" stop-color="#fb7937"/><stop offset="0.74" stop-color="#fd9f4e"/><stop offset="0.84" stop-color="#feba5f"/><stop offset="0.93" stop-color="#ffca69"/><stop offset="1" stop-color="#ffd06c"/></linearGradient><radialGradient id="Unbenannter_Verlauf_76" cx="-78.07" cy="-357.2" r="34.55" gradientTransform="translate(100.07 304.22) scale(0.86 0.85)" gradientUnits="userSpaceOnUse"><stop offset="0" stop-color="#fff"/><stop offset="1" stop-color="#fff" stop-opacity="0"/></radialGradient><radialGradient id="未命名漸層_6" cx="34.04" cy="-12.18" r="36.62" gradientUnits="userSpaceOnUse"><stop offset="0" stop-color="#fff"/><stop offset="1" stop-color="#fff" stop-opacity="0"/></radialGradient></defs><title>btn_random</title><g class="cls-1"><g id="圖層_2" data-name="圖層 2"><g id="圖層_1-2" data-name="圖層 1"><path class="cls-2" d="M33,0A33,33,0,1,0,66,33,33,33,0,0,0,33,0Zm0,63.64A30.64,30.64,0,1,1,63.64,33,30.64,30.64,0,0,1,33,63.64Z"/><circle class="cls-3" cx="33" cy="33" r="30.64"/><path class="cls-4" d="M54.67,23.26c0,9.83-9-2.75-21-2.75S11.33,33.09,11.33,23.26,21,5.46,33,5.46,54.67,13.43,54.67,23.26Z"/><ellipse class="cls-5" cx="33" cy="15.89" rx="17.85" ry="10.23"/><path class="cls-6" d="M34.34,16.31A1.44,1.44,0,0,1,33,15V12.31c0-.67-.67-.89-1.34-.67l-8.45,6.45a1.48,1.48,0,0,0,0,2.23l8.45,6.45A.85.85,0,0,0,33,26.1V23.65a1.42,1.42,0,0,1,1.78-1.33,11.3,11.3,0,0,1,9.35,13.57,11.5,11.5,0,0,1-1.56,3.79,2.77,2.77,0,0,0,.67,3.78h0A2.59,2.59,0,0,0,47,42.79a16.59,16.59,0,0,0,2.89-9.34A17,17,0,0,0,34.34,16.31Z"/><path class="cls-6" d="M31.66,49.69A1.44,1.44,0,0,1,33,51v2.67c0,.67.67.89,1.34.67l8.45-6.45a1.48,1.48,0,0,0,0-2.23l-8.45-6.45A.85.85,0,0,0,33,39.9v2.45a1.42,1.42,0,0,1-1.78,1.33,11.3,11.3,0,0,1-9.35-13.57,11.5,11.5,0,0,1,1.56-3.79,2.77,2.77,0,0,0-.67-3.78h0a2.59,2.59,0,0,0-3.78.67,16.59,16.59,0,0,0-2.89,9.34C16.31,41.68,23,49,31.66,49.69Z"/></g></g></g></svg>