<svg xmlns="http://www.w3.org/2000/svg" viewBox="0 0 563 567.02"><defs><style>.cls-1{fill:none;stroke:#02daff;stroke-miterlimit:10;stroke-width:3px;}</style></defs><title>frame</title><g id="圖層_2" data-name="圖層 2"><g id="圖層_1-2" data-name="圖層 1"><path class="cls-1" d="M61.53,506.56a60,60,0,0,0,119.94,0c0-.35,0-.69,0-1,0,.35,0,.69,0,1h40.06c0-.35,0-.69,0-1,0,.35,0,.69,0,1a60,60,0,0,0,119.94,0c0-.35,0-.69,0-1,0,.35,0,.69,0,1h40.06c0-.35,0-.69,0-1,0,.35,0,.69,0,1a60,60,0,0,0,119.94,0c0-.35,0-.69,0-1,0,.35,0,.69,0,1h50a10,10,0,0,0,10-10V11.5a10,10,0,0,0-10-10H11.5a10,10,0,0,0-10,10V496.56a10,10,0,0,0,10,10h50c0-.35,0-.69,0-1C61.5,505.87,61.52,506.21,61.53,506.56Z"/></g></g></svg>