<svg xmlns="http://www.w3.org/2000/svg" viewBox="0 0 60 60"><defs><style>.cls-1{opacity:0;}.cls-2{fill:#ff91ff;}</style></defs><title>icon_scissor_lose</title><g id="圖層_2" data-name="圖層 2"><g id="圖層_1-2" data-name="圖層 1"><rect class="cls-1" width="60" height="60"/><path d="M14.42,39c-.15-.64-.31-1.28-.43-1.93a9.56,9.56,0,0,1,1.16-7,8.68,8.68,0,0,1,3.51-3c.35-.18.7-.35,1.05-.5a.26.26,0,0,0,.18-.33c-.38-1.72-.73-3.44-1.13-5.15a60,60,0,0,1-1.56-7.72A7,7,0,0,1,19.63,7a5.34,5.34,0,0,1,3-1.34A3.57,3.57,0,0,1,26.59,8.5c.25,1.09.37,2.21.62,3.3.38,1.69.82,3.38,1.24,5.07.11.44.24.88.39,1.41,0-.18.07-.28.09-.38.59-2.86,1.14-5.73,1.78-8.58a6.82,6.82,0,0,1,3.73-4.69,6.37,6.37,0,0,1,2.93-.74,3.69,3.69,0,0,1,4,4A17.1,17.1,0,0,1,41,10.43a89.28,89.28,0,0,0-1.3,10.93.61.61,0,0,0,.25.59A18.41,18.41,0,0,1,44.4,27a13,13,0,0,1,1.81,6.75A22.77,22.77,0,0,1,43.78,44a17.81,17.81,0,0,1-5.51,6.46c-.2.14-.26.25-.17.49a2.91,2.91,0,0,1-1,3.33,7.5,7.5,0,0,1-4.47,1.81,20.33,20.33,0,0,1-8.87-1.26,6.33,6.33,0,0,1-3.43-3,3.33,3.33,0,0,1,0-3.14l.05-.12a19.91,19.91,0,0,1-2.87-3.28,22.1,22.1,0,0,1-2.29-4.12,2.34,2.34,0,0,0-.15-.27Zm25.19-9.33h-.08l-.13-.3a19.8,19.8,0,0,1-1-4.09,25.65,25.65,0,0,1,0-5.54A99.75,99.75,0,0,1,39.81,9a6.37,6.37,0,0,0,.11-1.51,2.21,2.21,0,0,0-2.09-2.2,4.85,4.85,0,0,0-.66,0A5.72,5.72,0,0,0,32,9.91c-.16.8-.33,1.61-.49,2.42-.55,2.77-1.11,5.54-1.64,8.32A4,4,0,0,0,29.76,22c.23,1.6.52,3.19.79,4.78.06.34.15.68.22,1l.21,1A20.71,20.71,0,0,1,28.59,23c-.55-2.13-1.11-4.25-1.65-6.39-.37-1.47-.74-2.94-1.07-4.42-.23-1.05-.38-2.12-.57-3.18A2.24,2.24,0,0,0,22.42,7.1a4.51,4.51,0,0,0-1.49.65A5.51,5.51,0,0,0,18.58,13a38.81,38.81,0,0,0,1.07,5.75c.53,2.34,1.08,4.68,1.57,7a15.58,15.58,0,0,1,.26,4.52,8.22,8.22,0,0,1-1.84,4.61c-.53.65-1,1.31-1.56,2l-.08,0c1.6-2.77,2.65-5.68,2.1-9l-1,.47a6.88,6.88,0,0,0-3.7,4.5,9.9,9.9,0,0,0,.14,5,19.89,19.89,0,0,0,5,8.9,10.91,10.91,0,0,0,4.58,3,22.1,22.1,0,0,0,8.93.82,5.72,5.72,0,0,0,2.66-.82,16.5,16.5,0,0,0,4.9-4.91,20.81,20.81,0,0,0,3.15-10,12.37,12.37,0,0,0-.48-4.61A14.51,14.51,0,0,0,40.14,24l-.5-.45ZM21.49,49.47a2,2,0,0,0,.18,1.79,5,5,0,0,0,2.46,2.16,18.61,18.61,0,0,0,7,1.3A7.55,7.55,0,0,0,35,54a4.16,4.16,0,0,0,1.61-1.27,1.34,1.34,0,0,0,.16-1.24c-.88.19-1.71.43-2.55.54a23.26,23.26,0,0,1-7.16-.29,12.36,12.36,0,0,1-3.83-1.19C22.68,50.2,22.1,49.84,21.49,49.47Z"/><path class="cls-2" d="M39.61,29.68l0-6.16.5.45a14.51,14.51,0,0,1,4.16,6.26,12.37,12.37,0,0,1,.48,4.61,20.81,20.81,0,0,1-3.15,10,16.5,16.5,0,0,1-4.9,4.91,5.72,5.72,0,0,1-2.66.82,22.1,22.1,0,0,1-8.93-.82,10.91,10.91,0,0,1-4.58-3,19.89,19.89,0,0,1-5-8.9,9.9,9.9,0,0,1-.14-5,6.88,6.88,0,0,1,3.7-4.5l1-.47c.55,3.3-.5,6.21-2.1,9l.08,0c.52-.66,1-1.32,1.56-2a8.22,8.22,0,0,0,1.84-4.61,15.58,15.58,0,0,0-.26-4.52c-.49-2.35-1-4.69-1.57-7A38.81,38.81,0,0,1,18.58,13a5.51,5.51,0,0,1,2.35-5.23,4.51,4.51,0,0,1,1.49-.65A2.24,2.24,0,0,1,25.3,9c.19,1.06.34,2.13.57,3.18.33,1.48.7,2.95,1.07,4.42.54,2.14,1.1,4.26,1.65,6.39A20.71,20.71,0,0,0,31,28.75l-.21-1c-.07-.33-.16-.67-.22-1-.27-1.59-.56-3.18-.79-4.78a4,4,0,0,1,.11-1.33c.53-2.78,1.09-5.55,1.64-8.32.16-.81.33-1.62.49-2.42a5.72,5.72,0,0,1,5.17-4.62,4.85,4.85,0,0,1,.66,0,2.21,2.21,0,0,1,2.09,2.2A6.37,6.37,0,0,1,39.81,9a99.75,99.75,0,0,0-1.43,10.73,25.65,25.65,0,0,0,0,5.54,19.8,19.8,0,0,0,1,4.09l.13.3Z"/><path class="cls-2" d="M21.49,49.47c.61.37,1.19.73,1.78,1.05a12.36,12.36,0,0,0,3.83,1.19,23.26,23.26,0,0,0,7.16.29c.84-.11,1.67-.35,2.55-.54a1.34,1.34,0,0,1-.16,1.24A4.16,4.16,0,0,1,35,54a7.55,7.55,0,0,1-3.88.75,18.61,18.61,0,0,1-7-1.3,5,5,0,0,1-2.46-2.16A2,2,0,0,1,21.49,49.47Z"/></g></g></svg>