<svg xmlns="http://www.w3.org/2000/svg" viewBox="0 0 60 60"><defs><style>.cls-1,.cls-3{fill:#fff;}.cls-1{opacity:0;}.cls-2{opacity:0.5;}</style></defs><title>icon_paper_line</title><g id="圖層_2" data-name="圖層 2"><g id="圖層_1-2" data-name="圖層 1"><rect class="cls-1" width="60" height="60"/><g class="cls-2"><path class="cls-3" d="M41.4,20.11c.92-1.82,1.85-3.64,2.77-5.47.18-.36.32-.76.5-1.13a5.35,5.35,0,0,1,4.16-3.2,3,3,0,0,1,3.36,3.52c-.27,1.47-.65,2.92-1,4.38-.83,3.28-1.73,6.54-2.33,9.88a28,28,0,0,0-.36,5.72A21.31,21.31,0,0,1,45.7,45.14,17.38,17.38,0,0,1,41.53,50c-.12.1-.18.17-.11.35a3,3,0,0,1-1,3.7,8,8,0,0,1-4.48,1.86,20.08,20.08,0,0,1-8.57-.86,6,6,0,0,1-3.47-2.84,3.25,3.25,0,0,1-.12-3.06.85.85,0,0,0,.06-.17c-.48-.44-1-.87-1.44-1.33-1.07-1.08-2.12-2.19-3.2-3.26A18.63,18.63,0,0,0,17.57,43a1.6,1.6,0,0,0-.72-.26,29.9,29.9,0,0,1-5.52-1.45,7.8,7.8,0,0,1-2.71-1.62,2.55,2.55,0,0,1-.6-3,9.37,9.37,0,0,1,3.05-3.91,6.36,6.36,0,0,1,5.72-.8,15.19,15.19,0,0,1,4.49,2.31l.69.5h.11c0-.59,0-1.16-.06-1.74a62.09,62.09,0,0,0-1.71-11c-.52-2.25-1.08-4.5-1.6-6.74a7.45,7.45,0,0,1,.61-5.44,5.74,5.74,0,0,1,4.33-3.2,3.5,3.5,0,0,1,3.94,2.62c.25.82.36,1.7.61,2.52.68,2.28,1.4,4.55,2.11,6.82a.91.91,0,0,0,.09.18c0-.34.06-.61.1-.87.39-2.67.77-5.35,1.19-8A7,7,0,0,1,37.81,4a4.17,4.17,0,0,1,2.43.43,3.57,3.57,0,0,1,1.84,2.73A8.11,8.11,0,0,1,42,9.56a93.13,93.13,0,0,0-.73,10.28c0,.08,0,.16,0,.24Zm-8.28,8.82L33,28.88a20,20,0,0,1-2.26-4.44c-.8-2.37-1.55-4.77-2.33-7.15A62,62,0,0,1,26.38,10a3.25,3.25,0,0,0-.33-.9,2.06,2.06,0,0,0-2.11-1.17,3.53,3.53,0,0,0-1.69.61A5.43,5.43,0,0,0,19.86,13a11,11,0,0,0,.44,3c.75,3.26,1.55,6.51,2.22,9.79A45,45,0,0,1,23.44,36a.72.72,0,0,1-1.27.58c-.64-.49-1.27-1-1.93-1.45a13.37,13.37,0,0,0-3.82-1.94,5,5,0,0,0-5.1,1,9.08,9.08,0,0,0-2,2.87,1.2,1.2,0,0,0,.22,1.44A6.12,6.12,0,0,0,11.85,40a27,27,0,0,0,5.23,1.35,2.71,2.71,0,0,1,1.33.54q1,.86,2,1.77c1.42,1.38,2.78,2.82,4.22,4.16a9.2,9.2,0,0,0,4.14,2.36,21.46,21.46,0,0,0,8.85.23,5.47,5.47,0,0,0,2.34-.88,16.22,16.22,0,0,0,4.85-5.56,20,20,0,0,0,2.31-10.2,28.52,28.52,0,0,1,.44-6.26C48.2,24,49.15,20.56,50,17.11c.31-1.21.56-2.43.82-3.65a1.06,1.06,0,0,0,0-.53,1.64,1.64,0,0,0-2.28-1.16,4.12,4.12,0,0,0-2.25,1.7,14.85,14.85,0,0,0-.81,1.65A55.3,55.3,0,0,1,42,21.69a3.31,3.31,0,0,0-.56,2.2c.1,1.07.14,2.14.2,3.21,0,.75.07,1.5.11,2.27l-.08,0c0-.1-.1-.2-.14-.3a20.1,20.1,0,0,1-1.57-7.69A90.72,90.72,0,0,1,40.68,9a7.09,7.09,0,0,0,.07-1.3,2.27,2.27,0,0,0-2.5-2.36,3.69,3.69,0,0,0-.87.1A5.65,5.65,0,0,0,33.07,10c-.12.67-.2,1.35-.29,2q-.62,4.39-1.22,8.77a5.92,5.92,0,0,0,0,2.14c.19.85.36,1.7.57,2.54C32.45,26.6,32.79,27.74,33.12,28.93ZM25,49.94A2.09,2.09,0,0,0,25.38,52a5.25,5.25,0,0,0,2.69,1.86,18.57,18.57,0,0,0,5.54.8,11.43,11.43,0,0,0,3.77-.44A5.27,5.27,0,0,0,40,52.47,1.34,1.34,0,0,0,40.2,51c-.67.21-1.31.46-2,.61a21.9,21.9,0,0,1-6.71.35,13.24,13.24,0,0,1-3.93-.77C26.7,50.87,25.85,50.39,25,49.94Z"/></g></g></g></svg>