<svg xmlns="http://www.w3.org/2000/svg" viewBox="0 0 60 60"><defs><style>.cls-1{opacity:0;}.cls-2{fill:#23f6ff;}</style></defs><title>icon_paper_win</title><g id="圖層_2" data-name="圖層 2"><g id="圖層_1-2" data-name="圖層 1"><rect class="cls-1" width="60" height="60"/><path d="M41.4,20.11c.92-1.82,1.85-3.64,2.77-5.47.18-.36.32-.76.5-1.13,1.32-2.73,3.87-4,7.9-2.86a37.44,37.44,0,0,1-1.4,7.56c-.93,3.64-1.93,7.27-2.52,11a17,17,0,0,0-.21,3.7A21.44,21.44,0,0,1,45.7,45.14,17.38,17.38,0,0,1,41.53,50c-.12.1-.18.17-.11.35a3,3,0,0,1-1,3.7,8,8,0,0,1-4.48,1.86,20.08,20.08,0,0,1-8.57-.86,6,6,0,0,1-3.47-2.84,3.25,3.25,0,0,1,0-3.21c-.49-.45-1-.89-1.46-1.35-1.07-1.08-2.12-2.19-3.2-3.26A18.63,18.63,0,0,0,17.57,43a1.6,1.6,0,0,0-.72-.26,29.9,29.9,0,0,1-5.52-1.45,6.24,6.24,0,0,1-3.86-3.32,10.55,10.55,0,0,1,3.6-5.25,6.36,6.36,0,0,1,5.72-.8,15.19,15.19,0,0,1,4.49,2.31l.69.5h.11c0-.59,0-1.16-.06-1.74a62.09,62.09,0,0,0-1.71-11c-.52-2.25-1.08-4.5-1.6-6.74a7.45,7.45,0,0,1,.61-5.44,5.74,5.74,0,0,1,4.33-3.2,3.5,3.5,0,0,1,3.94,2.62c.25.82.36,1.7.61,2.52.68,2.28,1.4,4.55,2.11,6.82a.91.91,0,0,0,.09.18c0-.34.06-.61.1-.87.39-2.67.77-5.35,1.19-8A6.94,6.94,0,0,1,39,4a3.61,3.61,0,0,1,3,3.16A8.11,8.11,0,0,1,42,9.56a93.13,93.13,0,0,0-.73,10.28c0,.08,0,.16,0,.24Zm-8.28,8.82L33,28.88a20,20,0,0,1-2.26-4.44C29.86,21.73,29,19,28.1,16.27a37.14,37.14,0,0,1-1.7-6.17,3.87,3.87,0,0,0-1-2,3.32,3.32,0,0,0-3.12.39A5.43,5.43,0,0,0,19.86,13a11,11,0,0,0,.44,3c.75,3.26,1.55,6.51,2.22,9.79A45,45,0,0,1,23.44,36a.72.72,0,0,1-1.27.58c-.64-.49-1.27-1-1.93-1.45a13.37,13.37,0,0,0-3.82-1.94,5,5,0,0,0-5.1,1,9.08,9.08,0,0,0-2,2.87,1.2,1.2,0,0,0,.22,1.44A6.12,6.12,0,0,0,11.85,40,30.47,30.47,0,0,0,18,41.47c.82.7,1.65,1.41,2.43,2.16,1.42,1.38,2.78,2.82,4.22,4.16a9.2,9.2,0,0,0,4.14,2.36,21.46,21.46,0,0,0,8.85.23,5.47,5.47,0,0,0,2.34-.88,16.22,16.22,0,0,0,4.85-5.56A20.13,20.13,0,0,0,47.06,33a17.32,17.32,0,0,1,.21-3.94c.64-4,1.75-8,2.76-11.95.31-1.21.56-2.43.82-3.65a1.06,1.06,0,0,0,0-.53,1.64,1.64,0,0,0-2.28-1.16,4.12,4.12,0,0,0-2.25,1.7,14.85,14.85,0,0,0-.81,1.65,48.41,48.41,0,0,1-4.21,7.58c.2,1.45.25,2.93.33,4.4,0,.75.07,1.5.11,2.27l-.08,0c0-.1-.1-.2-.14-.3a20.1,20.1,0,0,1-1.57-7.69A90.72,90.72,0,0,1,40.68,9a7.09,7.09,0,0,0,.07-1.3,2.27,2.27,0,0,0-2.5-2.36,3.69,3.69,0,0,0-.87.1A5.65,5.65,0,0,0,33.07,10c-.12.67-.2,1.35-.29,2q-.7,5-1.4,10.06c.28,1.13.48,2.27.77,3.39S32.79,27.74,33.12,28.93ZM25,49.94c-.53,1.41.8,2.65,2.12,3.56a17.69,17.69,0,0,0,6.54,1.15,11.43,11.43,0,0,0,3.77-.44A5.27,5.27,0,0,0,40,52.47,1.34,1.34,0,0,0,40.2,51c-.67.21-1.31.46-2,.61a21.9,21.9,0,0,1-6.71.35,13.24,13.24,0,0,1-3.93-.77C26.7,50.87,25.85,50.39,25,49.94Z"/><path class="cls-2" d="M33.12,28.93c-.33-1.19-.67-2.33-1-3.48s-.49-2.26-.77-3.39q.69-5,1.4-10.06c.09-.68.17-1.36.29-2a5.65,5.65,0,0,1,4.31-4.52,3.69,3.69,0,0,1,.87-.1,2.27,2.27,0,0,1,2.5,2.36A7.09,7.09,0,0,1,40.68,9a90.72,90.72,0,0,0-.77,12.33A20.1,20.1,0,0,0,41.48,29c0,.1.09.2.14.3l.08,0c0-.77-.07-1.52-.11-2.27-.08-1.47-.13-3-.33-4.4a48.41,48.41,0,0,0,4.21-7.58,14.85,14.85,0,0,1,.81-1.65,4.12,4.12,0,0,1,2.25-1.7,1.64,1.64,0,0,1,2.28,1.16,1.06,1.06,0,0,1,0,.53c-.26,1.22-.51,2.44-.82,3.65-1,4-2.12,7.9-2.76,12A17.32,17.32,0,0,0,47.06,33a20.13,20.13,0,0,1-2.27,10.94,16.22,16.22,0,0,1-4.85,5.56,5.47,5.47,0,0,1-2.34.88,21.46,21.46,0,0,1-8.85-.23,9.2,9.2,0,0,1-4.14-2.36c-1.44-1.34-2.8-2.78-4.22-4.16-.78-.75-1.61-1.46-2.43-2.16A30.47,30.47,0,0,1,11.85,40a6.12,6.12,0,0,1-2.34-1.41,1.2,1.2,0,0,1-.22-1.44,9.08,9.08,0,0,1,2-2.87,5,5,0,0,1,5.1-1,13.37,13.37,0,0,1,3.82,1.94c.66.46,1.29,1,1.93,1.45A.72.72,0,0,0,23.44,36a45,45,0,0,0-.92-10.23c-.67-3.28-1.47-6.53-2.22-9.79a11,11,0,0,1-.44-3,5.43,5.43,0,0,1,2.39-4.52,3.32,3.32,0,0,1,3.12-.39,3.87,3.87,0,0,1,1,2,37.14,37.14,0,0,0,1.7,6.17c.9,2.72,1.76,5.46,2.67,8.17A20,20,0,0,0,33,28.88Z"/><path class="cls-2" d="M25,49.94c.9.45,1.75.93,2.65,1.29a13.24,13.24,0,0,0,3.93.77,21.9,21.9,0,0,0,6.71-.35c.65-.15,1.29-.4,2-.61A1.34,1.34,0,0,1,40,52.47a5.27,5.27,0,0,1-2.63,1.74,11.43,11.43,0,0,1-3.77.44,17.69,17.69,0,0,1-6.54-1.15C25.75,52.59,24.42,51.35,25,49.94Z"/></g></g></svg>