<svg xmlns="http://www.w3.org/2000/svg" viewBox="0 0 50 50"><defs><style>.cls-1,.cls-2{fill:#fff;}.cls-2{opacity:0;}</style></defs><title>icon_eos</title><g id="圖層_2" data-name="圖層 2"><g id="圖層_1-2" data-name="圖層 1"><path class="cls-1" d="M25,7v0a2.46,2.46,0,0,1,0,.28q0,6,0,12a1.47,1.47,0,0,1,0,.21c0,.07-.07.09-.13.12l-1.05.48-1.49.67-1.78.81-1.46.67-1.74.79-1.49.67-1.2.55a.17.17,0,0,1-.1,0h0c.15-.26.31-.51.46-.76l2.62-4.34,2.81-4.67c.87-1.43,1.73-2.87,2.6-4.31L25,7.08A.12.12,0,0,0,25,7h0S25,7,25,7Z"/><path class="cls-1" d="M35.42,26.36h0v0L33,27.85l-7.81,4.62-.1.05s0,0-.05-.07a.75.75,0,0,1,0-.15V21.86a.55.55,0,0,1,0-.18c0-.07.07-.05.11,0l.68.31,2,.9,1.71.78,1.73.78,1.49.68,1.49.68,1.16.52Z"/><path class="cls-1" d="M25,43l0,0h0s0-.06,0-.08l-3.15-4.43Q20.2,36.21,18.59,34l-3.11-4.38-.81-1.15-.06-.09a.18.18,0,0,1,.1,0l4.4,2.6,5.05,3,.86.5s0,.06,0,.1a.75.75,0,0,1,0,.15v8A1.07,1.07,0,0,1,25,43Z"/><path class="cls-1" d="M14.58,24.31h0s0,0,0,0h0v0Z"/><path class="cls-1" d="M25,7l0,0h0Z"/><path class="cls-1" d="M14.6,26.39v0l1.6-.73,2.08-.94L19.88,24l2.32-1.05,1.58-.72,1.13-.51a.39.39,0,0,0,.11-.06s0,0,0,0V32.38s0,.1,0,.14-.06,0-.08,0l-.45-.26-9.81-5.8Z"/><path class="cls-1" d="M35.4,28.32h0a.33.33,0,0,1-.06.1L26,41.58,25,43s0,0,0-.05V34.46c.7-.42,1.4-.84,2.11-1.25l8.21-4.85Z"/><path class="cls-1" d="M25,19.59V7.17s0-.09,0-.12L35.33,24.12a.56.56,0,0,1,.09.19c-.23-.09-.45-.21-.67-.31l-.83-.37-.52-.24L32.54,23l-.5-.23-1.11-.5L30.36,22l-.81-.36-.5-.23-1.11-.51-.57-.26-.8-.36L26,20l-1-.44Z"/><rect class="cls-2" width="50" height="50"/></g></g></svg>