<svg xmlns="http://www.w3.org/2000/svg" viewBox="0 0 60 60"><defs><style>.cls-1{opacity:0;}.cls-2{fill:#23f6ff;}</style></defs><title>icon_scissor_win</title><g id="圖層_2" data-name="圖層 2"><g id="圖層_1-2" data-name="圖層 1"><rect class="cls-1" width="60" height="60"/><path d="M14.42,39c-.15-.64-.31-1.28-.43-1.93a9.56,9.56,0,0,1,1.16-7,8.68,8.68,0,0,1,3.51-3c.42-.21.84-.42,1.28-.6-.4-1.79-.76-3.6-1.18-5.38a60,60,0,0,1-1.56-7.72A7,7,0,0,1,19.63,7c1.57-1.37,3.59-1.83,6.18-.79.9,1.77,1,3.73,1.4,5.61.38,1.69.82,3.38,1.24,5.07.11.44.24.88.39,1.41,0-.18.07-.28.09-.38.73-3.53,1.39-7.06,2.25-10.56C33.62,4.53,36.48,3,40,4.45c1.83,2,1.29,4,.95,6a89.65,89.65,0,0,0-1.32,11.31A16.78,16.78,0,0,1,46,31.08a6.15,6.15,0,0,1,.13.86,23,23,0,0,1-2.38,12,17.81,17.81,0,0,1-5.51,6.46c-.2.14-.26.25-.17.49a2.91,2.91,0,0,1-1,3.33,7.5,7.5,0,0,1-4.47,1.81,20.33,20.33,0,0,1-8.87-1.26,6.33,6.33,0,0,1-3.43-3,3.33,3.33,0,0,1,0-3.25,20.46,20.46,0,0,1-2.88-3.29,22.1,22.1,0,0,1-2.29-4.12,2.34,2.34,0,0,0-.15-.27Zm25.19-9.33h-.08l-.13-.3a19.8,19.8,0,0,1-1-4.09,35.79,35.79,0,0,1,.13-7.81,73.54,73.54,0,0,1,1.23-8.34,6.86,6.86,0,0,0,.13-1.63,2.21,2.21,0,0,0-2.09-2.2,4.85,4.85,0,0,0-.66,0A5.72,5.72,0,0,0,32,9.91c-.16.8-.33,1.61-.49,2.42-.61,3.06-1.22,6.13-1.81,9.2.24,1.75.55,3.49.85,5.23.06.34.15.68.22,1l.21,1A20.71,20.71,0,0,1,28.59,23c-.55-2.13-1.11-4.25-1.65-6.39-.37-1.47-.74-2.94-1.07-4.42-.23-1.05-.38-2.12-.57-3.18A2.24,2.24,0,0,0,22.42,7.1a4.51,4.51,0,0,0-1.49.65A5.51,5.51,0,0,0,18.58,13a38.81,38.81,0,0,0,1.07,5.75c.53,2.34,1.08,4.68,1.57,7a17.75,17.75,0,0,1-.17,7.43c-1,1.18-2,2.43-3,3.67l-.08,0c1.6-2.77,2.65-5.68,2.1-9l-1,.47a6.88,6.88,0,0,0-3.7,4.5c-.83,3.24.41,6.44,1.89,9.53a12.11,12.11,0,0,0,1.58,2.5c1.7,2.11,3.6,4.15,6.23,5a22.1,22.1,0,0,0,8.93.82,5.72,5.72,0,0,0,2.66-.82,16.5,16.5,0,0,0,4.9-4.91,20.81,20.81,0,0,0,3.15-10,12.37,12.37,0,0,0-.48-4.61A14.51,14.51,0,0,0,40.14,24l-.5-.45ZM21.49,49.47a2,2,0,0,0,.18,1.79,5,5,0,0,0,2.46,2.16,18.61,18.61,0,0,0,7,1.3A7.55,7.55,0,0,0,35,54a4.16,4.16,0,0,0,1.61-1.27,1.34,1.34,0,0,0,.16-1.24c-.88.19-1.71.43-2.55.54a23.26,23.26,0,0,1-7.16-.29,12.36,12.36,0,0,1-3.83-1.19C22.68,50.2,22.1,49.84,21.49,49.47Z"/><path class="cls-2" d="M39.61,29.68l0-6.16.5.45a14.51,14.51,0,0,1,4.16,6.26,12.37,12.37,0,0,1,.48,4.61,20.81,20.81,0,0,1-3.15,10,16.5,16.5,0,0,1-4.9,4.91,5.72,5.72,0,0,1-2.66.82,22.1,22.1,0,0,1-8.93-.82c-2.63-.81-4.53-2.85-6.23-5a12.11,12.11,0,0,1-1.58-2.5c-1.48-3.09-2.72-6.29-1.89-9.53a6.88,6.88,0,0,1,3.7-4.5l1-.47c.55,3.3-.5,6.21-2.1,9l.08,0c1-1.24,1.93-2.49,3-3.67a17.75,17.75,0,0,0,.17-7.43c-.49-2.35-1-4.69-1.57-7A38.81,38.81,0,0,1,18.58,13a5.51,5.51,0,0,1,2.35-5.23,4.51,4.51,0,0,1,1.49-.65A2.24,2.24,0,0,1,25.3,9c.19,1.06.34,2.13.57,3.18.33,1.48.7,2.95,1.07,4.42.54,2.14,1.1,4.26,1.65,6.39A20.71,20.71,0,0,0,31,28.75l-.21-1c-.07-.33-.16-.67-.22-1-.3-1.74-.61-3.48-.85-5.23.59-3.07,1.2-6.14,1.81-9.2.16-.81.33-1.62.49-2.42a5.72,5.72,0,0,1,5.17-4.62,4.85,4.85,0,0,1,.66,0,2.21,2.21,0,0,1,2.09,2.2,6.86,6.86,0,0,1-.13,1.63,73.54,73.54,0,0,0-1.23,8.34,35.79,35.79,0,0,0-.13,7.81,19.8,19.8,0,0,0,1,4.09l.13.3Z"/><path class="cls-2" d="M21.49,49.47c.61.37,1.19.73,1.78,1.05a12.36,12.36,0,0,0,3.83,1.19,23.26,23.26,0,0,0,7.16.29c.84-.11,1.67-.35,2.55-.54a1.34,1.34,0,0,1-.16,1.24A4.16,4.16,0,0,1,35,54a7.55,7.55,0,0,1-3.88.75,18.61,18.61,0,0,1-7-1.3,5,5,0,0,1-2.46-2.16A2,2,0,0,1,21.49,49.47Z"/></g></g></svg>