<svg xmlns="http://www.w3.org/2000/svg" viewBox="0 0 50 50"><defs><style>.cls-1,.cls-2{fill:#fff;}.cls-2{opacity:0;}</style></defs><title>icon_eos</title><g id="圖層_2" data-name="圖層 2"><g id="圖層_1-2" data-name="圖層 1"><path class="cls-1" d="M35.35,33.83,32.07,19.2a.35.35,0,0,0-.06-.14L25.3,9.82a.38.38,0,0,0-.6,0L18,19.06a.35.35,0,0,0-.06.14L14.65,33.83a.36.36,0,0,0,.17.4l10,6.05h0l0,0h.26l0,0h0l10-6.05A.36.36,0,0,0,35.35,33.83Zm-10-22.63,5.91,8.15L29.78,24l-4.4-7.75Zm-.76,5.05L20.22,24l-1.51-4.65,5.91-8.15Zm.38.86L29.47,25,25,38.74,20.53,25Zm-.67,22-8.81-5.33L20,25.85ZM30,25.85l4.51,7.93-8.81,5.33Zm.31-1,1.36-4.18,2.43,10.84ZM18.36,20.7l1.36,4.18-3.79,6.66Z"/><rect class="cls-2" width="50" height="50"/></g></g></svg>