<svg xmlns="http://www.w3.org/2000/svg" viewBox="0 0 60 60"><defs><style>.cls-1{opacity:0;}.cls-2{fill:#23f6ff;}</style></defs><title>icon_stone_win</title><g id="圖層_2" data-name="圖層 2"><g id="圖層_1-2" data-name="圖層 1"><rect class="cls-1" width="60" height="60"/><path d="M28.76,55c-.38,0-.77-.09-1.14-.16a9.45,9.45,0,0,1-4-1.68,3.82,3.82,0,0,1-1.49-4.45c-6.35-3.47-10.25-9.12-12.35-16.43A25.25,25.25,0,0,1,9,28.05a37.68,37.68,0,0,1-.16-7.8A13.7,13.7,0,0,1,10.74,14,6.48,6.48,0,0,1,15.58,11c.19,0,.3-.07.35-.29a7.11,7.11,0,0,1,5.8-5.42A8.08,8.08,0,0,1,28,6.17a16.45,16.45,0,0,1,1.87,1.61c.24-.22.55-.53.89-.81,4.36-3.63,10.4-1.15,11.4,4.3a8.24,8.24,0,0,1-.06,3.39,15.36,15.36,0,0,1,4.67,2.14,10.75,10.75,0,0,1,4.32,7.1,19.07,19.07,0,0,1-.66,8.59,27.56,27.56,0,0,1-5.77,10.89,4.74,4.74,0,0,1-.16,5.55A10.81,10.81,0,0,1,43,50.75c-3.16,3.06-8.34,2.66-11,6.12-.64-2.26-1.11-2-1.59-1.87ZM15.81,12.77a4.52,4.52,0,0,0-3,1.58A8.56,8.56,0,0,0,11,18.29a29.75,29.75,0,0,0-.08,10.31,18,18,0,0,0,.32,1.81c1.94,8.26,6.25,14.24,13.68,17.75a34.62,34.62,0,0,0,11.45-1.5,14.76,14.76,0,0,0,7.39-5A26,26,0,0,0,48.38,33a19,19,0,0,0,1-7.84,9.07,9.07,0,0,0-5.87-8c-.51-.21-1-.39-1.58-.6,0,.13,0,.19,0,.26a17.72,17.72,0,0,0,.76,5.06,20.3,20.3,0,0,0,2.57,4.93c.25.38.49.77.65,1-.5-.46-1.14-1-1.69-1.58a25.39,25.39,0,0,1-2.35-2.85,11.61,11.61,0,0,1-1.63-5.64A12,12,0,0,1,40.38,14a5.9,5.9,0,0,0-.06-2.61,5.18,5.18,0,0,0-5.69-4.23c-1.55.18-3.91,1.54-4.3,3.79s-.68,4.25-1,6.37c0,.36-.08.72-.12,1.07s-.09.68-.14,1.08a20.33,20.33,0,0,1-.58-8,7.28,7.28,0,0,0,.08-1.74,2.74,2.74,0,0,0-1.42-2,6.7,6.7,0,0,0-6.24-.33,5.09,5.09,0,0,0-3.33,4.85c-.13,2.93-.31,5.86-.48,8.8a1.13,1.13,0,0,1,0,.18A22.76,22.76,0,0,1,15.81,12.77Zm8,36.75a5.73,5.73,0,0,0,0,.83A2.35,2.35,0,0,0,25.08,52a8.14,8.14,0,0,0,4.08,1.19,23.44,23.44,0,0,0,6.75-1,17.64,17.64,0,0,0,4.88-2,6.19,6.19,0,0,0,2.75-3.44,2.4,2.4,0,0,0-.2-2c-.59.52-.75.65-2.22,2a1.54,1.54,0,0,1-.59.35c-2,.69-4,1.48-6.1,2C30.94,49.86,27.41,50.4,23.76,49.52Z"/><path class="cls-2" d="M15.81,12.77a22.76,22.76,0,0,0,1.24,8.49,1.13,1.13,0,0,0,0-.18c.17-2.94.35-5.87.48-8.8a5.09,5.09,0,0,1,3.33-4.85,6.7,6.7,0,0,1,6.24.33,2.74,2.74,0,0,1,1.42,2,7.28,7.28,0,0,1-.08,1.74,20.33,20.33,0,0,0,.58,8c.05-.4.1-.74.14-1.08s.07-.71.12-1.07c.34-2.12.67-4.25,1-6.37s2.75-3.61,4.3-3.79a5.18,5.18,0,0,1,5.69,4.23A5.9,5.9,0,0,1,40.38,14a12,12,0,0,0-.13,3.73,11.61,11.61,0,0,0,1.63,5.64,25.39,25.39,0,0,0,2.35,2.85c.55.6,1.19,1.12,1.69,1.58-.16-.25-.4-.64-.65-1a20.3,20.3,0,0,1-2.57-4.93,17.72,17.72,0,0,1-.76-5.06c0-.07,0-.13,0-.26.55.21,1.07.39,1.58.6a9.07,9.07,0,0,1,5.87,8,19,19,0,0,1-1,7.84,26,26,0,0,1-4.65,8.69,14.76,14.76,0,0,1-7.39,5,34.62,34.62,0,0,1-11.45,1.5c-7.43-3.51-11.74-9.49-13.68-17.75a18,18,0,0,1-.32-1.81A29.75,29.75,0,0,1,11,18.29a8.56,8.56,0,0,1,1.8-3.94A4.52,4.52,0,0,1,15.81,12.77Z"/><path class="cls-2" d="M23.76,49.52c3.65.88,7.18.34,10.67-.47,2.08-.49,4.09-1.28,6.1-2a1.54,1.54,0,0,0,.59-.35c1.47-1.33,1.63-1.46,2.22-2a2.4,2.4,0,0,1,.2,2,6.19,6.19,0,0,1-2.75,3.44,17.64,17.64,0,0,1-4.88,2,23.44,23.44,0,0,1-6.75,1A8.14,8.14,0,0,1,25.08,52a2.35,2.35,0,0,1-1.31-1.62A5.73,5.73,0,0,1,23.76,49.52Z"/></g></g></svg>