<svg xmlns="http://www.w3.org/2000/svg" viewBox="0 0 26.39 40.02"><defs><style>.cls-1{fill:#fff;}</style></defs><title>icon_q_mark</title><g id="圖層_2" data-name="圖層 2"><g id="圖層_1-2" data-name="圖層 1"><path class="cls-1" d="M12.65,0c6.92,0,13.74,3.19,13.74,10.81,0,7-8.06,9.74-9.79,12.28-1.3,1.89-.86,4.54-4.43,4.54A3.44,3.44,0,0,1,8.71,24c0-6.44,9.46-7.89,9.46-13.2,0-2.91-2-4.65-5.19-4.65-6.92,0-4.22,7.14-9.46,7.14A3.23,3.23,0,0,1,0,10C0,4.7,6.05,0,12.65,0Zm-.27,31.14A4.44,4.44,0,1,1,8,35.58,4.46,4.46,0,0,1,12.38,31.14Z"/></g></g></svg>