<svg xmlns="http://www.w3.org/2000/svg" viewBox="0 0 30 30"><defs><style>.cls-1{fill:#ff4;}</style></defs><title>ison_eos_y</title><g id="圖層_2" data-name="圖層 2"><g id="圖層_1-2" data-name="圖層 1"><polygon class="cls-1" points="14.31 8.41 14.31 6.07 10.81 10.89 11.57 13.23 14.31 8.41"/><polygon class="cls-1" points="19.84 13.39 19.36 14.86 20.7 17.21 19.84 13.39"/><polygon class="cls-1" points="10.16 13.39 9.3 17.21 10.64 14.86 10.16 13.39"/><polygon class="cls-1" points="8.55 21.35 13.77 24.51 11.22 16.65 8.55 21.35"/><polygon class="cls-1" points="19.19 10.89 15.69 6.07 15.69 8.41 18.43 13.23 19.19 10.89"/><path class="cls-1" d="M15,0A15,15,0,1,0,30,15,15,15,0,0,0,15,0Zm7.75,22.18-7.39,4.48-.23-.35.15.39-.1,0-.18,0h-.13l-.11,0-.06,0L7.25,22.18a.68.68,0,0,1-.31-.74L9.36,10.62a.62.62,0,0,1,.12-.26l5-6.83a.69.69,0,0,1,1.12,0l5,6.83a.82.82,0,0,1,.12.25l2.43,10.83A.7.7,0,0,1,22.75,22.18Z"/><polygon class="cls-1" points="15 10 12.15 15.02 15 23.82 17.85 15.02 15 10"/><polygon class="cls-1" points="16.23 24.51 21.45 21.35 18.78 16.65 16.23 24.51"/></g></g></svg>