<svg xmlns="http://www.w3.org/2000/svg" xmlns:xlink="http://www.w3.org/1999/xlink" viewBox="0 0 60 60"><defs><style>.cls-1{isolation:isolate;}.cls-2{fill:#01366a;}.cls-3{fill:url(#未命名漸層_187);}.cls-4,.cls-6{mix-blend-mode:overlay;}.cls-4{fill:url(#Unbenannter_Verlauf_76);}.cls-5{fill:#fff;}.cls-6{fill:url(#未命名漸層_6);}</style><linearGradient id="未命名漸層_187" x1="30" y1="57.86" x2="30" y2="2.14" gradientUnits="userSpaceOnUse"><stop offset="0" stop-color="#0060aa"/><stop offset="0.3" stop-color="#0178b7"/><stop offset="0.92" stop-color="#02b5da"/><stop offset="0.99" stop-color="#02bcde"/></linearGradient><radialGradient id="Unbenannter_Verlauf_76" cx="-35.78" cy="-545.95" r="34.55" gradientTransform="translate(57.75 422.04) scale(0.79 0.77)" gradientUnits="userSpaceOnUse"><stop offset="0" stop-color="#fff"/><stop offset="1" stop-color="#fff" stop-opacity="0"/></radialGradient><radialGradient id="未命名漸層_6" cx="35.82" cy="-172.66" r="36.62" gradientTransform="translate(-1.62 145.89) scale(0.91 0.91)" gradientUnits="userSpaceOnUse"><stop offset="0" stop-color="#fff"/><stop offset="1" stop-color="#fff" stop-opacity="0"/></radialGradient></defs><title>info</title><g class="cls-1"><g id="圖層_2" data-name="圖層 2"><g id="圖層_1-2" data-name="圖層 1"><path class="cls-2" d="M30,0A30,30,0,1,0,60,30,30,30,0,0,0,30,0Zm0,57.86A27.86,27.86,0,1,1,57.86,30,27.86,27.86,0,0,1,30,57.86Z"/><circle class="cls-3" cx="30" cy="30" r="27.86"/><path class="cls-4" d="M49.7,21.14c0,8.94-8.21-2.49-19.1-2.49S10.3,30.08,10.3,21.14,19.12,5,30,5,49.7,12.21,49.7,21.14Z"/><path class="cls-5" d="M35.93,45.14c-1.41.56-2.54,1-3.39,1.28a9,9,0,0,1-2.94.44,5.9,5.9,0,0,1-4-1.25,4.06,4.06,0,0,1-1.42-3.19,11.7,11.7,0,0,1,.1-1.54c.08-.52.19-1.1.35-1.76l1.77-6.27c.16-.6.29-1.17.4-1.7A7.41,7.41,0,0,0,27,29.67a2.28,2.28,0,0,0-.5-1.67,2.83,2.83,0,0,0-1.89-.46,4.68,4.68,0,0,0-1.41.21,12.59,12.59,0,0,0-1.23.41l.46-1.93c1.16-.48,2.28-.88,3.34-1.22a9.84,9.84,0,0,1,3-.51,5.73,5.73,0,0,1,3.94,1.24A4.1,4.1,0,0,1,34.06,29c0,.27,0,.75-.1,1.43a9.48,9.48,0,0,1-.35,1.89l-1.77,6.25a17.1,17.1,0,0,0-.38,1.71,8.42,8.42,0,0,0-.17,1.46,2.11,2.11,0,0,0,.55,1.7,3.14,3.14,0,0,0,1.93.45,5.62,5.62,0,0,0,1.46-.23,9.43,9.43,0,0,0,1.18-.39ZM35.62,19.8a4.21,4.21,0,0,1-3,1.14,4.27,4.27,0,0,1-3-1.14A3.66,3.66,0,0,1,28.43,17a3.7,3.7,0,0,1,1.24-2.79,4.25,4.25,0,0,1,3-1.16,4.19,4.19,0,0,1,3,1.16,3.75,3.75,0,0,1,0,5.57Z"/><ellipse class="cls-6" cx="30" cy="14.45" rx="16.22" ry="9.3"/></g></g></g></svg>